<svg xmlns="http://www.w3.org/2000/svg" xmlns:xlink="http://www.w3.org/1999/xlink" version="1.1" x="0px" y="0px" viewBox="0 0 56 70" enable-background="new 0 0 56 56" xml:space="preserve"><path d="M52.921875,13.9824219c-0.1645508-0.3916016-0.5625-0.6416016-0.9819336-0.6103516l-7.7414551,0.4665527  c-1.9572754-3.1143799-4.7467651-5.0788574-7.848877-5.0788574c-4.6738281,0-10.0976562,2.9106445-10.8041992,10.9624023  c-1.7207031-0.8500977-4.9257812-2.0180664-9.8579102-2.2597656c-1.512207-0.0737305-2.9882812-0.4262695-4.387207-1.0473633  c-1.7080078-0.7583008-3.0058594-1.6933594-3.753418-2.7045898c-0.2426758-0.3291016-0.6630859-0.4785156-1.0551758-0.3735352  c-0.3950195,0.1020508-0.6879883,0.4345703-0.7407227,0.8388672c-0.0551758,0.425293-1.2900391,10.4760742,3.9736328,16.5791016  c1.612793,1.8701172,3.6542969,3.159668,6.0981445,3.8574219c-2.015625,0.8637695-4.4746094,2.2089844-6.6831055,4.2304688  c-0.0219727,0.0180664-2.2060547,1.8208008-4.8950195,2.5415039c-0.4423828-0.1123047-0.9243164,0.0947266-1.1386719,0.5224609  c-0.2470703,0.4936523-0.0473633,1.09375,0.4462891,1.3413086c0.1411133,0.0708008,8.0493164,3.9365234,17.5585938,3.9365234  c7.5874023,0,16.1943359-2.4614258,22.6860352-11.2749023c2.1025391-2.8544922,3.2602539-6.8964844,3.2602539-11.3818359  c0-1.3856812-0.1342773-2.7230225-0.3632812-4.0042725l5.9775391-5.4122314  C52.9858398,14.8266602,53.0864258,14.3740234,52.921875,13.9824219z M42.1865234,34.7231445  c-5.6972656,7.7348633-13.7412109,11.2290039-23.9082031,10.3999023c-4.7236328-0.3876953-8.840332-1.6704102-11.3276367-2.6088867  c2.0029297-0.9243164,3.4013672-2.0786133,3.5039062-2.1655273c4.3325195-3.9638672,9.8535156-5.1342773,9.9086914-5.1459961  c0.4995117-0.1025391,0.8417969-0.5639648,0.7949219-1.0712891s-0.4672852-0.8984375-0.9765625-0.9082031  c-3.8320312-0.0703125-6.8388672-1.3383789-8.9375-3.7685547c-3.3208008-3.8447266-3.7021484-9.7470703-3.6391602-12.8867188  c0.8017578,0.6186523,1.7651367,1.1787109,2.8837891,1.675293c1.6254883,0.7216797,3.3417969,1.1308594,5.1010742,1.2172852  c7.0664062,0.3457031,10.2329102,2.7275391,10.2597656,2.7480469c0.300293,0.2373047,0.7089844,0.2817383,1.0532227,0.1157227  c0.3442383-0.1655273,0.5639648-0.5131836,0.565918-0.8955078c0.0419922-7.8662109,4.6152344-10.6689453,8.8808594-10.6689453  c2.5566406,0,4.8521729,1.7619629,6.4465942,4.5456543c0.0045776,0.0094604,0.0105591,0.017334,0.0153198,0.0266113  c1.3907471,2.440918,2.2456055,5.6594849,2.2456055,9.1958008C45.0571289,28.5302734,44.0107422,32.246582,42.1865234,34.7231445z   M46.1798706,18.2908325c-0.2589722-0.8815308-0.5696411-1.7223511-0.928833-2.5122681l3.9677124-0.2390137L46.1798706,18.2908325z"/><path d="M36.1499023,15.8896484c-0.0302734-0.0595703-0.0600586-0.1196289-0.0898438-0.1699219  c-0.0400391-0.0498047-0.0800781-0.1098633-0.1303711-0.1499023c-0.0898438-0.0898438-0.199707-0.1699219-0.3198242-0.2202148  c-0.3701172-0.1499023-0.8198242-0.0595703-1.0898438,0.2202148c-0.050293,0.0400391-0.090332,0.1000977-0.1303711,0.1499023  c-0.0297852,0.050293-0.0600586,0.1103516-0.0898438,0.1699219C34.2797852,15.949707,34.2597656,16.0200195,34.25,16.0800781  c-0.0200195,0.0595703-0.0200195,0.1298828-0.0200195,0.1899414c0,0.1396484,0.0200195,0.2597656,0.0698242,0.3896484  c0.0498047,0.1201172,0.1298828,0.2299805,0.2202148,0.3203125c0.0400391,0.0498047,0.0898438,0.0898438,0.1499023,0.1298828  c0.0498047,0.0297852,0.1098633,0.0600586,0.1699219,0.0898438c0.0600586,0.0200195,0.1298828,0.0400391,0.1899414,0.0600586  c0.0600586,0.0102539,0.1298828,0.0102539,0.1899414,0.0102539c0.1401367,0,0.2602539-0.0200195,0.3901367-0.0703125  c0.1201172-0.0498047,0.2299805-0.1196289,0.3198242-0.2197266c0.090332-0.090332,0.1699219-0.2001953,0.2202148-0.3203125  c0.0498047-0.1298828,0.0698242-0.25,0.0698242-0.3896484c0-0.0600586,0-0.1303711-0.0200195-0.1899414  C36.1899414,16.0200195,36.1699219,15.949707,36.1499023,15.8896484z"/><text x="0" y="71" fill="#000000" font-size="5px" font-weight="bold" font-family="'Helvetica Neue', Helvetica, Arial-Unicode, Arial, Sans-serif">Created by rivercon</text><text x="0" y="76" fill="#000000" font-size="5px" font-weight="bold" font-family="'Helvetica Neue', Helvetica, Arial-Unicode, Arial, Sans-serif">from the Noun Project</text></svg>