<svg xmlns="http://www.w3.org/2000/svg" xmlns:xlink="http://www.w3.org/1999/xlink" version="1.0" x="0px" y="0px" viewBox="0 0 100 125" enable-background="new 0 0 100 100" xml:space="preserve"><path d="M70,43.333c-6.204,0-11.374,4.262-12.861,10H50v0.014l-0.007-0.007c-9.186,0-16.624-7.435-16.66-16.608v-0.537  c5.742-1.487,10-6.656,10-12.861C43.333,15.97,37.363,10,30,10s-13.333,5.97-13.333,13.333c0,6.205,4.258,11.374,10,12.861v27.611  c-5.742,1.487-10,6.656-10,12.861C16.667,84.03,22.637,90,30,90s13.333-5.97,13.333-13.333c0-6.205-4.258-11.374-10-12.861V52.988  C37.568,57.312,43.464,60,49.993,60L50,59.993V60h7.139C58.626,65.739,63.796,70,70,70c7.363,0,13.333-5.97,13.333-13.333  S77.363,43.333,70,43.333z"/><text x="0" y="115" fill="#000000" font-size="5px" font-weight="bold" font-family="'Helvetica Neue', Helvetica, Arial-Unicode, Arial, Sans-serif">Created by Danil Polshin</text><text x="0" y="120" fill="#000000" font-size="5px" font-weight="bold" font-family="'Helvetica Neue', Helvetica, Arial-Unicode, Arial, Sans-serif">from the Noun Project</text></svg>